<?xml version="1.0" encoding="UTF-8" standalone="no"?>
<!-- Created with Inkscape (http://www.inkscape.org/) -->
<svg
   xmlns:dc="http://purl.org/dc/elements/1.1/"
   xmlns:cc="http://web.resource.org/cc/"
   xmlns:rdf="http://www.w3.org/1999/02/22-rdf-syntax-ns#"
   xmlns:svg="http://www.w3.org/2000/svg"
   xmlns="http://www.w3.org/2000/svg"
   xmlns:xlink="http://www.w3.org/1999/xlink"
   xmlns:sodipodi="http://sodipodi.sourceforge.net/DTD/sodipodi-0.dtd"
   xmlns:inkscape="http://www.inkscape.org/namespaces/inkscape"
   width="1052.3622"
   height="744.09448"
   id="svg2"
   sodipodi:version="0.32"
   inkscape:version="0.45.1"
   version="1.0"
   sodipodi:docbase="D:\svn\sw\qda\gmanda\resources"
   sodipodi:docname="gmandaicon.svg"
   inkscape:output_extension="org.inkscape.output.svg.inkscape">
  <defs
     id="defs4">
    <linearGradient
       inkscape:collect="always"
       id="linearGradient2162">
      <stop
         style="stop-color:#0000ff;stop-opacity:1;"
         offset="0"
         id="stop2164" />
      <stop
         style="stop-color:#0000ff;stop-opacity:0;"
         offset="1"
         id="stop2166" />
    </linearGradient>
    <linearGradient
       inkscape:collect="always"
       xlink:href="#linearGradient2162"
       id="linearGradient2168"
       x1="262.85715"
       y1="3.7907541"
       x2="405.71429"
       y2="360.93362"
       gradientUnits="userSpaceOnUse"
       gradientTransform="matrix(1.7864078,0,0,3.0764706,-81.664358,-170.37559)" />
    <linearGradient
       inkscape:collect="always"
       xlink:href="#linearGradient2162"
       id="linearGradient3501"
       gradientUnits="userSpaceOnUse"
       gradientTransform="matrix(1.7864078,0,0,3.0764706,-81.664358,-170.37559)"
       x1="262.85715"
       y1="3.7907541"
       x2="405.71429"
       y2="360.93362" />
    <linearGradient
       inkscape:collect="always"
       xlink:href="#linearGradient2162"
       id="linearGradient3536"
       gradientUnits="userSpaceOnUse"
       gradientTransform="matrix(1.7864078,0,0,3.0764706,-81.664358,-170.37559)"
       x1="262.85715"
       y1="3.7907541"
       x2="405.71429"
       y2="360.93362" />
    <linearGradient
       inkscape:collect="always"
       xlink:href="#linearGradient2162"
       id="linearGradient3539"
       gradientUnits="userSpaceOnUse"
       gradientTransform="matrix(1.7864078,0,0,3.0764706,-44.081911,-173.15947)"
       x1="262.85715"
       y1="3.7907541"
       x2="405.71429"
       y2="360.93362" />
  </defs>
  <sodipodi:namedview
     id="base"
     pagecolor="#ffffff"
     bordercolor="#666666"
     borderopacity="1.0"
     inkscape:pageopacity="0.0"
     inkscape:pageshadow="2"
     inkscape:zoom="1.436841"
     inkscape:cx="262.71578"
     inkscape:cy="376.00062"
     inkscape:document-units="px"
     inkscape:current-layer="layer1"
     width="1052.3622px"
     height="744.09448px"
     showgrid="true"
     inkscape:grid-points="true"
     inkscape:window-width="801"
     inkscape:window-height="575"
     inkscape:window-x="154"
     inkscape:window-y="154" />
  <metadata
     id="metadata7">
    <rdf:RDF>
      <cc:Work
         rdf:about="">
        <dc:format>image/svg+xml</dc:format>
        <dc:type
           rdf:resource="http://purl.org/dc/dcmitype/StillImage" />
      </cc:Work>
    </rdf:RDF>
  </metadata>
  <g
     inkscape:label="Ebene 1"
     inkscape:groupmode="layer"
     id="layer1">
    <rect
       style="fill:#ffffff;fill-opacity:1;stroke:none;stroke-opacity:1"
       id="rect3542"
       width="159.37741"
       height="159.37741"
       x="72.381012"
       y="278.48972"
       inkscape:export-filename="D:\svn\sw\qda\gmanda\gmandalogo.png"
       inkscape:export-xdpi="143.32816"
       inkscape:export-ydpi="143.32816" />
    <path
       style="fill:url(#linearGradient3539);fill-opacity:1"
       d="M 72.394947,277.12237 L 72.394947,437.87237 L 233.1137,437.87237 L 233.1137,277.12237 L 72.394947,277.12237 z M 155.95745,280.59112 C 182.20839,280.59126 202.40799,292.07138 216.51995,315.05987 L 195.1137,335.09112 C 190.63724,327.35248 185.0893,321.57893 178.4887,317.74737 C 171.8879,313.91605 165.00877,311.99749 157.8012,311.99737 C 146.11713,311.9975 135.94364,316.43317 127.33245,325.30987 C 118.72114,334.18676 114.42615,344.65285 114.4262,356.71612 C 114.42615,369.53823 118.72113,380.39517 127.33245,389.30987 C 135.94364,398.22465 146.31818,402.68492 158.45745,402.68487 C 165.05808,402.68491 171.41231,401.02318 177.51995,397.68487 C 183.62736,394.34661 188.5522,388.08395 192.26995,378.90362 L 156.8637,378.90362 L 156.8637,349.77862 L 225.83245,349.77862 L 225.83245,369.12237 C 225.83231,379.06142 222.44185,389.73522 215.6137,401.15362 C 208.78524,412.57209 199.7665,420.91192 188.6137,426.18487 C 177.46071,431.45784 166.21287,434.09112 154.83245,434.09112 C 134.19572,434.09113 116.77012,426.63128 102.58245,411.68487 C 88.39472,396.73848 81.301197,378.24975 81.301197,356.24737 C 81.301198,335.38317 88.602451,317.57341 103.20745,302.77862 C 117.81242,287.9841 135.39658,280.59126 155.95745,280.59112 z "
       id="rect2160"
       inkscape:export-filename="D:\svn\sw\qda\gmanda\gmandalogo.png"
       inkscape:export-xdpi="143.32816"
       inkscape:export-ydpi="143.32816" />
  </g>
</svg>
